<svg id="Grupo_4" data-name="Grupo 4" xmlns="http://www.w3.org/2000/svg" xmlns:xlink="http://www.w3.org/1999/xlink" width="180.11" height="39.247" viewBox="0 0 180.11 39.247">
  <defs>
    <clipPath id="clip-path">
      <rect id="Rectángulo_7" data-name="Rectángulo 7" width="180.11" height="39.247" fill="none"/>
    </clipPath>
  </defs>
  <g id="Grupo_1" data-name="Grupo 1" clip-path="url(#clip-path)">
    <path id="Trazado_1" data-name="Trazado 1" d="M39.653,55.413l.027,1.634-1.473.024L38.18,55.5a4.675,4.675,0,0,1-3.465-1.316l1.292-1.335a3.327,3.327,0,0,0,2.334.838l-.043-2.64-.468-.051a3.486,3.486,0,0,1-2.027-.843,2.71,2.71,0,0,1-.777-2.016,3.091,3.091,0,0,1,2.984-3.171l-.021-1.313,1.473-.024.021,1.3a4.264,4.264,0,0,1,2.893,1.15l-1.263,1.29a2.911,2.911,0,0,0-1.806-.672l.041,2.538.556.079a3.537,3.537,0,0,1,2,.785,2.877,2.877,0,0,1,.838,2.176c.028,1.78-1.267,2.895-3.087,3.143m-1.424-8.689a1.294,1.294,0,0,0-1.249,1.3,1,1,0,0,0,.318.739,1.717,1.717,0,0,0,.969.393Zm2.193,4.766a1.768,1.768,0,0,0-1.042-.363l.04,2.509c.874-.116,1.348-.562,1.337-1.276a1.157,1.157,0,0,0-.335-.87" transform="translate(-25.692 -32.286)" fill="#e00520"/>
    <path id="Trazado_2" data-name="Trazado 2" d="M45.789,2.57a.67.67,0,0,1-.739.564H41.631a.67.67,0,0,1-.739-.564V.564A.669.669,0,0,1,41.631,0H45.05a.669.669,0,0,1,.739.564Z" transform="translate(-30.264 0)" fill="#f5b015"/>
    <path id="Trazado_3" data-name="Trazado 3" d="M13.088,41.731a9.818,9.818,0,1,1,0-19.636,1.635,1.635,0,1,0,0-3.27,13.088,13.088,0,1,0,0,26.175,1.635,1.635,0,1,0,0-3.27" transform="translate(0 -13.933)" fill="#e00520"/>
    <rect id="Rectángulo_1" data-name="Rectángulo 1" width="2.1" height="2.023" transform="translate(24.835 16.933)" fill="#f5b015"/>
    <path id="Trazado_4" data-name="Trazado 4" d="M91.727,66.152a1.011,1.011,0,1,0,1.011-1.011,1.011,1.011,0,0,0-1.011,1.011" transform="translate(-67.886 -48.21)" fill="#f5b015"/>
    <path id="Trazado_5" data-name="Trazado 5" d="M99.508,66.152a1.011,1.011,0,1,0,1.011-1.011,1.011,1.011,0,0,0-1.011,1.011" transform="translate(-73.644 -48.21)" fill="#f5b015"/>
    <rect id="Rectángulo_2" data-name="Rectángulo 2" width="2.1" height="2.023" transform="translate(22.616 11.279) rotate(-36.961)" fill="#f5b015"/>
    <path id="Trazado_6" data-name="Trazado 6" d="M85.716,44.186a1.011,1.011,0,1,0,.2-1.416,1.012,1.012,0,0,0-.2,1.416" transform="translate(-63.287 -31.503)" fill="#f5b015"/>
    <path id="Trazado_7" data-name="Trazado 7" d="M91.933,39.508a1.011,1.011,0,1,0,.2-1.416,1.012,1.012,0,0,0-.2,1.416" transform="translate(-67.888 -28.04)" fill="#f5b015"/>
    <rect id="Rectángulo_3" data-name="Rectángulo 3" width="2.1" height="2.023" transform="translate(17.748 7.508) rotate(-60.627)" fill="#f5b015"/>
    <path id="Trazado_8" data-name="Trazado 8" d="M68.326,28.733a1.011,1.011,0,1,0-.385-1.377,1.011,1.011,0,0,0,.385,1.377" transform="translate(-50.186 -19.864)" fill="#f5b015"/>
    <path id="Trazado_9" data-name="Trazado 9" d="M72.143,21.953a1.011,1.011,0,1,0-.385-1.377,1.011,1.011,0,0,0,.385,1.377" transform="translate(-53.011 -14.846)" fill="#f5b015"/>
    <rect id="Rectángulo_4" data-name="Rectángulo 4" width="2.023" height="2.1" transform="translate(22.709 24.354) rotate(-58.606)" fill="#f5b015"/>
    <path id="Trazado_10" data-name="Trazado 10" d="M85.717,87a1.011,1.011,0,1,0,1.39-.336,1.011,1.011,0,0,0-1.39.336" transform="translate(-63.328 -64.03)" fill="#f5b015"/>
    <path id="Trazado_11" data-name="Trazado 11" d="M92.359,91.055a1.011,1.011,0,1,0,1.39-.336,1.011,1.011,0,0,0-1.39.336" transform="translate(-68.244 -67.03)" fill="#f5b015"/>
    <rect id="Rectángulo_5" data-name="Rectángulo 5" width="2.023" height="2.1" transform="matrix(0.86, -0.511, 0.511, 0.86, 17.809, 27.852)" fill="#f5b015"/>
    <path id="Trazado_12" data-name="Trazado 12" d="M68.505,101.473a1.011,1.011,0,1,0,1.386.353,1.011,1.011,0,0,0-1.386-.353" transform="translate(-50.333 -74.994)" fill="#f5b015"/>
    <path id="Trazado_13" data-name="Trazado 13" d="M72.48,108.162a1.011,1.011,0,1,0,1.386.353,1.011,1.011,0,0,0-1.386-.353" transform="translate(-53.275 -79.944)" fill="#f5b015"/>
    <path id="Trazado_14" data-name="Trazado 14" d="M140.528,51.237a6.862,6.862,0,0,1,.707,2.1,10.067,10.067,0,0,1-2.171.656,13.425,13.425,0,0,1-2.4.2,9.311,9.311,0,0,1-3.547-.644,7.2,7.2,0,0,1-2.664-1.843,8.185,8.185,0,0,1-1.667-2.916,12.01,12.01,0,0,1-.581-3.863A12.453,12.453,0,0,1,128.788,41a8.542,8.542,0,0,1,1.667-2.992,7.286,7.286,0,0,1,2.651-1.906,8.851,8.851,0,0,1,3.51-.669,13.113,13.113,0,0,1,2.474.2,13.929,13.929,0,0,1,1.843.48,4.665,4.665,0,0,1-.215,1.073q-.164.492-.391,1.048-.379-.126-.732-.227t-.757-.177a8.39,8.39,0,0,0-.9-.114q-.492-.038-1.124-.038a5.219,5.219,0,0,0-4.28,1.869,8.3,8.3,0,0,0-1.528,5.378,10.017,10.017,0,0,0,.429,3.105,5.882,5.882,0,0,0,1.212,2.171,4.938,4.938,0,0,0,1.881,1.288,6.709,6.709,0,0,0,2.462.429,9.554,9.554,0,0,0,1.919-.177,8.2,8.2,0,0,0,1.616-.505" transform="translate(-94.884 -26.223)" fill="#59595b"/>
    <path id="Trazado_15" data-name="Trazado 15" d="M192.222,56.322q.278-.05.53-.076t.53-.025c.185,0,.37.009.555.025a4.054,4.054,0,0,1,.505.076q.076.379.152,1a8.866,8.866,0,0,1,.076,1.048,5.236,5.236,0,0,1,1.4-1.49,3.717,3.717,0,0,1,2.234-.631q.2,0,.417.012t.366.038a4.14,4.14,0,0,1,.076.48q.025.253.025.53a5.51,5.51,0,0,1-.038.631c-.025.219-.055.429-.088.631a1.723,1.723,0,0,0-.417-.051h-.341a4.417,4.417,0,0,0-1.3.189,2.722,2.722,0,0,0-1.111.669,3.323,3.323,0,0,0-.783,1.313,6.637,6.637,0,0,0-.29,2.146v6.438a5.984,5.984,0,0,1-.619.076q-.341.025-.619.025t-.619-.025q-.341-.025-.644-.076Z" transform="translate(-142.261 -41.608)" fill="#59595b"/>
    <path id="Trazado_16" data-name="Trazado 16" d="M228.483,62.841a4.23,4.23,0,0,0,1.1,3.106,4.36,4.36,0,0,0,3.093.985,9.284,9.284,0,0,0,3.408-.631,3.79,3.79,0,0,1,.328.921,6,6,0,0,1,.152,1.073,8.441,8.441,0,0,1-1.831.53,12.739,12.739,0,0,1-2.209.177,8.345,8.345,0,0,1-3.03-.492A5.324,5.324,0,0,1,226.211,65a9.069,9.069,0,0,1-.379-2.689,9.518,9.518,0,0,1,.366-2.689,6.056,6.056,0,0,1,1.123-2.171,5.431,5.431,0,0,1,1.906-1.464,6.3,6.3,0,0,1,2.714-.543,5.675,5.675,0,0,1,2.348.455,4.776,4.776,0,0,1,1.692,1.25,5.431,5.431,0,0,1,1.035,1.894,7.754,7.754,0,0,1,.354,2.386q0,.354-.025.745t-.051.669Zm6.413-1.868a4.761,4.761,0,0,0-.189-1.351,3.429,3.429,0,0,0-.555-1.124,2.707,2.707,0,0,0-.934-.77,2.937,2.937,0,0,0-1.351-.291,2.975,2.975,0,0,0-2.361.934,4.572,4.572,0,0,0-1,2.6Z" transform="translate(-167.135 -41.033)" fill="#59595b"/>
    <path id="Trazado_17" data-name="Trazado 17" d="M288.05,51.633a3.894,3.894,0,0,1-2.186-.978,4.592,4.592,0,0,1-1.136-3.434,7.548,7.548,0,0,1,.24-1.957,4.5,4.5,0,0,1,.732-1.553,3.491,3.491,0,0,1,1.25-1.035,3.966,3.966,0,0,1,1.793-.379,7.408,7.408,0,0,1,1.262.1,5.44,5.44,0,0,1,1.086.3v6.136h2.474V34.951a5.978,5.978,0,0,0-.619-.076q-.341-.025-.618-.025-.253,0-.606.025a5.94,5.94,0,0,0-.631.076v5.631a8.613,8.613,0,0,0-1.174-.253,8.906,8.906,0,0,0-1.326-.1,6.8,6.8,0,0,0-2.664.505,5.912,5.912,0,0,0-2.058,1.426,6.4,6.4,0,0,0-1.326,2.209,8.31,8.31,0,0,0-.467,2.853,7.763,7.763,0,0,0,.53,3.055,5.285,5.285,0,0,0,3.573,3.143,9.35,9.35,0,0,0,1.87.315Z" transform="translate(-208.761 -25.792)" fill="#59595b"/>
    <path id="Trazado_18" data-name="Trazado 18" d="M344.226,38.083q.328.051.707.076t.682.025q.277,0,.644-.025t.669-.076a5.214,5.214,0,0,0,.063-.657q.012-.353.013-.631t-.013-.631a4.532,4.532,0,0,0-.063-.631q-.3-.05-.682-.076t-.656-.025q-.278,0-.657.025t-.707.076a4.388,4.388,0,0,0-.063.631q-.013.354-.012.631t.012.631a5.038,5.038,0,0,0,.063.657" transform="translate(-254.7 -26.223)" fill="#59595b"/>
    <path id="Trazado_19" data-name="Trazado 19" d="M339.976,58.578h1.641v6.363h2.449V56.609h-4.09a3.11,3.11,0,0,0-.076.467c-.017.177-.025.35-.025.517s.008.341.025.518a3.1,3.1,0,0,0,.076.467" transform="translate(-251.536 -41.895)" fill="#59595b"/>
    <path id="Trazado_20" data-name="Trazado 20" d="M376.342,49.843l.392-9.569,3.939,9.569h2.717l4.075-9.493.39,9.493h2.471l-.64-13.533a6.046,6.046,0,0,0-.682-.076q-.4-.025-.732-.025-.354,0-.732.025a5.026,5.026,0,0,0-.631.076l-4.722,11.362-4.7-11.362a6.071,6.071,0,0,0-.694-.076q-.417-.025-.77-.025t-.745.025q-.392.025-.694.076l-.6,13.533Z" transform="translate(-276.781 -26.798)" fill="#59595b"/>
    <path id="Trazado_21" data-name="Trazado 21" d="M455.354,38.083q.328.051.707.076t.682.025q.277,0,.644-.025t.669-.076a5.214,5.214,0,0,0,.063-.657q.012-.353.013-.631t-.013-.631a4.532,4.532,0,0,0-.063-.631q-.3-.05-.682-.076c-.252-.017-.471-.025-.656-.025s-.4.009-.657.025-.488.042-.707.076a4.379,4.379,0,0,0-.063.631q-.013.354-.012.631t.012.631a5.027,5.027,0,0,0,.063.657" transform="translate(-336.944 -26.223)" fill="#59595b"/>
    <path id="Trazado_22" data-name="Trazado 22" d="M451.1,58.578h1.641v6.363h2.449V56.609H451.1a3.119,3.119,0,0,0-.076.467c-.017.177-.025.35-.025.517s.008.341.025.518a3.107,3.107,0,0,0,.076.467" transform="translate(-333.78 -41.895)" fill="#59595b"/>
    <path id="Trazado_23" data-name="Trazado 23" d="M487.211,64.078V62.134a6.289,6.289,0,0,1,.29-2.033,3.915,3.915,0,0,1,.77-1.376,2.974,2.974,0,0,1,1.111-.783,3.571,3.571,0,0,1,1.338-.253,1.96,1.96,0,0,1,1.767.846,4.907,4.907,0,0,1,.556,2.638v2.9h2.5V60.493a5.787,5.787,0,0,0-1.06-3.775,4.029,4.029,0,0,0-3.283-1.275,4.615,4.615,0,0,0-2.6.77,4.98,4.98,0,0,0-.9.77,5.185,5.185,0,0,0-.644.858,9.5,9.5,0,0,0-.076-1.073q-.076-.644-.152-1.023-.278-.05-.517-.076a5.026,5.026,0,0,0-.518-.025q-.278,0-.543.025t-.543.076v8.332Z" transform="translate(-358.727 -41.033)" fill="#59595b"/>
    <path id="Trazado_24" data-name="Trazado 24" d="M544.794,64.653a9.426,9.426,0,0,1-.076-1.237V56.321a6.047,6.047,0,0,0-.631-.076q-.354-.025-.631-.025-.253,0-.606.025a6.014,6.014,0,0,0-.631.076v7.2c0,.4.017.781.048,1.136Z" transform="translate(-401.287 -41.608)" fill="#59595b"/>
    <path id="Trazado_25" data-name="Trazado 25" d="M576.359,64.653V56.321a6.066,6.066,0,0,0-.619-.076q-.341-.025-.619-.025t-.619.025a6.047,6.047,0,0,0-.619.076v8.332Z" transform="translate(-424.724 -41.608)" fill="#59595b"/>
    <path id="Trazado_26" data-name="Trazado 26" d="M596.451,49.473V55.81h2.479c0-.137,0-.279,0-.429V49.473h3.282q.05-.252.076-.505t.025-.53a4.212,4.212,0,0,0-.1-.959h-3.282V44.272h-.2L594.38,49.12l.1.353Z" transform="translate(-439.892 -32.765)" fill="#59595b"/>
    <path id="Trazado_27" data-name="Trazado 27" d="M637.032,64.078a9.037,9.037,0,0,1-.174-1.843,6.339,6.339,0,0,1,.82-3.5,2.846,2.846,0,0,1,2.563-1.25,2.878,2.878,0,0,1,2.575,1.25,6.263,6.263,0,0,1,.833,3.5,8.9,8.9,0,0,1-.177,1.843H646.1a9.9,9.9,0,0,0,.171-1.843,9.4,9.4,0,0,0-.366-2.676,5.943,5.943,0,0,0-1.124-2.146,5.4,5.4,0,0,0-1.894-1.439,6.892,6.892,0,0,0-5.3,0,5.4,5.4,0,0,0-1.894,1.439,5.942,5.942,0,0,0-1.124,2.146,9.393,9.393,0,0,0-.366,2.676,9.9,9.9,0,0,0,.171,1.843Z" transform="translate(-469.367 -41.033)" fill="#59595b"/>
    <rect id="Rectángulo_6" data-name="Rectángulo 6" width="99.176" height="14.682" transform="translate(80.934 24.565)" fill="#e00520"/>
    <path id="Trazado_28" data-name="Trazado 28" d="M329.211,115.269A3.237,3.237,0,0,1,328,114.6a.506.506,0,0,1-.166-.386.432.432,0,0,1,.088-.271.258.258,0,0,1,.21-.116.534.534,0,0,1,.309.122,3.723,3.723,0,0,0,2.342.8,2.477,2.477,0,0,0,1.458-.365,1.2,1.2,0,0,0,.508-1.038.834.834,0,0,0-.243-.624,1.753,1.753,0,0,0-.641-.381,9.638,9.638,0,0,0-1.071-.3,10.433,10.433,0,0,1-1.486-.442,2.311,2.311,0,0,1-.939-.663,1.7,1.7,0,0,1-.359-1.127,2,2,0,0,1,.359-1.177,2.324,2.324,0,0,1,1.005-.8,3.658,3.658,0,0,1,1.474-.282,4.278,4.278,0,0,1,1.442.238,3.039,3.039,0,0,1,1.121.679.539.539,0,0,1,.177.387.435.435,0,0,1-.088.271.258.258,0,0,1-.21.116.671.671,0,0,1-.32-.121,3.767,3.767,0,0,0-1.005-.619,3.147,3.147,0,0,0-1.116-.177,2.332,2.332,0,0,0-1.425.381,1.256,1.256,0,0,0-.508,1.066.979.979,0,0,0,.448.878,4.509,4.509,0,0,0,1.375.514q1,.243,1.58.447a2.365,2.365,0,0,1,.955.613,1.539,1.539,0,0,1,.381,1.093,1.912,1.912,0,0,1-.359,1.149,2.333,2.333,0,0,1-1.011.773,3.8,3.8,0,0,1-1.491.276,5.043,5.043,0,0,1-1.585-.248" transform="translate(-242.626 -79.598)" fill="#fff"/>
    <path id="Trazado_29" data-name="Trazado 29" d="M365.677,107.808a.48.48,0,0,1,.116.337v6.993a.458.458,0,0,1-.111.32.4.4,0,0,1-.309.122.363.363,0,0,1-.3-.122.489.489,0,0,1-.1-.32v-5.645l-2.4,4.6a.488.488,0,0,1-.453.32.5.5,0,0,1-.453-.32l-2.408-4.54v5.59a.472.472,0,0,1-.105.32.38.38,0,0,1-.3.122.4.4,0,0,1-.309-.122.458.458,0,0,1-.111-.32v-6.993a.468.468,0,0,1,.122-.337.437.437,0,0,1,.331-.127.5.5,0,0,1,.442.32l2.806,5.38,2.773-5.38a.642.642,0,0,1,.193-.248.43.43,0,0,1,.248-.072.42.42,0,0,1,.326.127" transform="translate(-265.273 -79.693)" fill="#fff"/>
    <path id="Trazado_30" data-name="Trazado 30" d="M401.654,115.162a.351.351,0,0,1-.127.276.448.448,0,0,1-.3.11.391.391,0,0,1-.387-.265l-.784-1.79h-4.165l-.8,1.79a.391.391,0,0,1-.387.265.455.455,0,0,1-.309-.116.361.361,0,0,1-.133-.282.394.394,0,0,1,.044-.177l3.16-7.026a.476.476,0,0,1,.2-.232.56.56,0,0,1,.287-.077.55.55,0,0,1,.3.083.516.516,0,0,1,.2.226l3.16,7.026a.416.416,0,0,1,.044.188m-5.435-2.419h3.5l-1.757-3.966Z" transform="translate(-291.789 -79.662)" fill="#fff"/>
    <path id="Trazado_31" data-name="Trazado 31" d="M436.2,115.373a.336.336,0,0,1-.127.271.465.465,0,0,1-.691-.116l-1.48-2.342a1.777,1.777,0,0,0-.6-.624,1.741,1.741,0,0,0-.84-.171h-1.392v2.883a.466.466,0,0,1-.122.337.423.423,0,0,1-.32.127.436.436,0,0,1-.331-.127.465.465,0,0,1-.122-.337v-6.937a.423.423,0,0,1,.127-.32.467.467,0,0,1,.337-.121h2.74a2.934,2.934,0,0,1,1.939.563,2.045,2.045,0,0,1,.668,1.657,2.074,2.074,0,0,1-.536,1.491,2.44,2.44,0,0,1-1.53.685,1.359,1.359,0,0,1,.5.287,2.58,2.58,0,0,1,.442.552l1.259,1.988a.468.468,0,0,1,.077.254m-2.894-3.734a2.069,2.069,0,0,0,1.353-.376,1.4,1.4,0,0,0,.447-1.138,1.364,1.364,0,0,0-.442-1.116,2.111,2.111,0,0,0-1.359-.364h-2.231v2.994Z" transform="translate(-318.368 -79.851)" fill="#fff"/>
    <path id="Trazado_32" data-name="Trazado 32" d="M460.429,115.609a.455.455,0,0,1-.127-.337v-6.606h-2.375a.446.446,0,0,1-.309-.1.429.429,0,0,1,0-.574.446.446,0,0,1,.309-.1h5.667a.447.447,0,0,1,.309.1.429.429,0,0,1,0,.574.446.446,0,0,1-.309.1h-2.375v6.606a.466.466,0,0,1-.122.337.438.438,0,0,1-.331.127.456.456,0,0,1-.337-.127" transform="translate(-338.594 -79.85)" fill="#fff"/>
    <path id="Trazado_33" data-name="Trazado 33" d="M489.122,115.61a.465.465,0,0,1-.122-.337v-6.938a.423.423,0,0,1,.127-.32.467.467,0,0,1,.337-.121h2.618a2.794,2.794,0,0,1,1.906.6,2.13,2.13,0,0,1,.679,1.69,2.156,2.156,0,0,1-.685,1.7,2.765,2.765,0,0,1-1.9.607h-2.176v2.784a.466.466,0,0,1-.122.337.5.5,0,0,1-.663,0m2.872-3.872q1.779,0,1.779-1.558,0-1.535-1.779-1.535h-2.088v3.093Z" transform="translate(-361.901 -79.851)" fill="#fff"/>
    <path id="Trazado_34" data-name="Trazado 34" d="M525.3,107.808a.48.48,0,0,1,.116.337v6.97a.479.479,0,0,1-.116.337.419.419,0,0,1-.326.127.437.437,0,0,1-.331-.127.466.466,0,0,1-.121-.337v-3.16h-4.662v3.16a.466.466,0,0,1-.122.337.437.437,0,0,1-.331.127.419.419,0,0,1-.326-.127.48.48,0,0,1-.116-.337v-6.97a.482.482,0,0,1,.116-.337.42.42,0,0,1,.326-.127.438.438,0,0,1,.331.127.467.467,0,0,1,.122.337v3.038h4.662v-3.038a.468.468,0,0,1,.121-.337.438.438,0,0,1,.331-.127.42.42,0,0,1,.326.127" transform="translate(-384.077 -79.693)" fill="#fff"/>
    <path id="Trazado_35" data-name="Trazado 35" d="M554.287,115.032a3.187,3.187,0,0,1-1.232-1.381,4.816,4.816,0,0,1-.431-2.11,4.935,4.935,0,0,1,.425-2.127,3.117,3.117,0,0,1,1.226-1.381,3.974,3.974,0,0,1,3.789,0,3.118,3.118,0,0,1,1.226,1.381,4.907,4.907,0,0,1,.425,2.115,4.854,4.854,0,0,1-.431,2.115,3.183,3.183,0,0,1-1.232,1.386,3.892,3.892,0,0,1-3.767,0m3.811-1.121a4.457,4.457,0,0,0,.005-4.756,2.657,2.657,0,0,0-3.861.006,4.419,4.419,0,0,0,0,4.744,2.639,2.639,0,0,0,3.855.005" transform="translate(-408.989 -79.598)" fill="#fff"/>
    <path id="Trazado_36" data-name="Trazado 36" d="M594.882,107.808a.5.5,0,0,1,.11.337v6.97a.479.479,0,0,1-.116.337.419.419,0,0,1-.326.127.46.46,0,0,1-.364-.188l-4.585-6.131v5.855a.479.479,0,0,1-.116.337.4.4,0,0,1-.315.127.388.388,0,0,1-.309-.127.493.493,0,0,1-.11-.337v-6.97a.48.48,0,0,1,.116-.337.42.42,0,0,1,.326-.127.471.471,0,0,1,.376.188L594.142,114v-5.855a.48.48,0,0,1,.116-.337.406.406,0,0,1,.315-.127.389.389,0,0,1,.309.127" transform="translate(-435.725 -79.693)" fill="#fff"/>
    <path id="Trazado_37" data-name="Trazado 37" d="M622.836,115.56a.423.423,0,0,1-.127-.32v-6.9a.423.423,0,0,1,.127-.32.468.468,0,0,1,.337-.121H627.3a.446.446,0,0,1,.309.1.4.4,0,0,1,0,.552.446.446,0,0,1-.309.1h-3.7v2.707h3.48a.446.446,0,0,1,.309.1.4.4,0,0,1,0,.553.447.447,0,0,1-.309.1H623.6v2.828h3.7a.463.463,0,0,1,.309.094.349.349,0,0,1,.11.281.353.353,0,0,1-.11.276.447.447,0,0,1-.309.1h-4.131a.467.467,0,0,1-.337-.122" transform="translate(-460.857 -79.851)" fill="#fff"/>
    <path id="Trazado_38" data-name="Trazado 38" d="M649.118,115.269a3.238,3.238,0,0,1-1.21-.669.507.507,0,0,1-.166-.386.432.432,0,0,1,.088-.271.258.258,0,0,1,.21-.116.534.534,0,0,1,.309.122,3.723,3.723,0,0,0,2.342.8,2.477,2.477,0,0,0,1.458-.365,1.2,1.2,0,0,0,.508-1.038.834.834,0,0,0-.243-.624,1.752,1.752,0,0,0-.641-.381,9.667,9.667,0,0,0-1.071-.3,10.428,10.428,0,0,1-1.486-.442,2.313,2.313,0,0,1-.939-.663,1.7,1.7,0,0,1-.359-1.127,2,2,0,0,1,.359-1.177,2.325,2.325,0,0,1,1.005-.8,3.659,3.659,0,0,1,1.474-.282,4.279,4.279,0,0,1,1.442.238,3.04,3.04,0,0,1,1.121.679.54.54,0,0,1,.177.387.435.435,0,0,1-.088.271.259.259,0,0,1-.21.116.671.671,0,0,1-.32-.121,3.764,3.764,0,0,0-1.005-.619,3.147,3.147,0,0,0-1.116-.177,2.332,2.332,0,0,0-1.425.381,1.256,1.256,0,0,0-.508,1.066.979.979,0,0,0,.448.878,4.51,4.51,0,0,0,1.375.514q1,.243,1.58.447a2.364,2.364,0,0,1,.955.613,1.539,1.539,0,0,1,.381,1.093,1.912,1.912,0,0,1-.359,1.149,2.332,2.332,0,0,1-1.011.773,3.794,3.794,0,0,1-1.491.276,5.044,5.044,0,0,1-1.585-.248" transform="translate(-479.385 -79.598)" fill="#fff"/>
  </g>
</svg>
