<?xml version="1.0" encoding="UTF-8"?><svg id="Capa_1"  xmlns="http://www.w3.org/2000/svg"  viewBox="0 0 1287.25 344.43"><defs><style>.cls-1{fill:#fff;}.cls-2{fill:#de0520;}.cls-3{fill:#494949;}</style></defs><g><g><path class="cls-3" d="M327.64,225.96c-12.43,0-23.06-2.55-31.89-7.67-8.83-5.11-15.6-12.4-20.3-21.87-4.7-9.47-7.06-20.65-7.06-33.54s2.35-24.05,7.06-33.46c4.7-9.41,11.47-16.67,20.3-21.78,8.83-5.11,19.46-7.67,31.89-7.67,6.85,0,13.44,.93,19.78,2.79,6.33,1.86,11.82,4.53,16.47,8.02,2.55,1.63,4.03,3.57,4.44,5.84,.41,2.27,.06,4.3-1.05,6.1-1.11,1.8-2.7,2.99-4.79,3.57-2.09,.58-4.42,0-6.97-1.74-3.95-2.9-8.22-5.05-12.81-6.45-4.59-1.39-9.44-2.09-14.55-2.09-13.24,0-23.35,4.07-30.32,12.2-6.97,8.13-10.45,19.69-10.45,34.68s3.48,26.57,10.45,34.76c6.97,8.19,17.08,12.28,30.32,12.28,5.11,0,10.02-.7,14.72-2.09,4.7-1.39,9.15-3.6,13.33-6.62,2.55-1.63,4.82-2.18,6.8-1.66,1.97,.52,3.48,1.66,4.53,3.4s1.39,3.69,1.05,5.84c-.35,2.15-1.57,3.98-3.66,5.49-4.88,3.83-10.54,6.74-16.99,8.71-6.45,1.97-13.22,2.96-20.3,2.96Z"/><path class="cls-3" d="M397.34,225.61c-5.92,0-8.89-2.96-8.89-8.89v-69.7c0-5.92,2.85-8.89,8.54-8.89s8.54,2.96,8.54,8.89v7.49c2.32-5.23,5.84-9.24,10.54-12.02,4.7-2.79,10.43-4.41,17.16-4.88,4.3-.35,6.62,1.98,6.97,6.97,.46,5.11-2.03,7.9-7.49,8.36l-3.31,.35c-15.45,1.51-23.18,9.47-23.18,23.87v39.55c0,5.92-2.96,8.89-8.89,8.89Z"/><path class="cls-3" d="M492.13,225.96c-13.94,0-24.92-3.92-32.93-11.76-8.02-7.84-12.02-18.56-12.02-32.15,0-8.71,1.77-16.41,5.31-23.09,3.54-6.68,8.45-11.88,14.72-15.6,6.27-3.72,13.47-5.58,21.61-5.58,11.73,0,20.97,3.75,27.71,11.24,6.74,7.49,10.11,17.8,10.11,30.93,0,3.95-2.33,5.92-6.97,5.92h-55.41c1.28,17.66,10.63,26.49,28.05,26.49,3.49,0,7.14-.44,10.98-1.31,3.83-.87,7.55-2.47,11.15-4.79,2.44-1.39,4.56-1.89,6.36-1.48,1.8,.41,3.11,1.39,3.92,2.96,.81,1.57,.96,3.31,.44,5.23-.52,1.92-1.89,3.57-4.09,4.97-3.95,2.67-8.57,4.68-13.85,6.01-5.29,1.33-10.31,2-15.07,2Zm-2.61-75.8c-7.32,0-13.13,2.27-17.42,6.8-4.3,4.53-6.91,10.57-7.84,18.12h47.57c-.35-7.9-2.44-14.03-6.27-18.38-3.83-4.36-9.18-6.53-16.03-6.53Z"/><path class="cls-3" d="M576.34,211.57c-4.41-1.12-8.16-3.45-11.19-7.05-4.42-5.23-6.62-12.78-6.62-22.65s2.21-17.39,6.62-22.57c4.41-5.17,10.28-7.75,17.6-7.75s13.01,2.59,17.42,7.75c4.41,5.17,6.62,12.69,6.62,22.57,0,5.54-.72,10.32-2.11,14.4h19.36V109.21c0-5.92-2.96-8.89-8.89-8.89s-8.71,2.96-8.71,8.89v44.09c-2.44-4.76-6.16-8.54-11.15-11.33-5-2.79-10.69-4.18-17.08-4.18-7.55,0-14.11,1.8-19.69,5.4-5.58,3.6-9.93,8.68-13.07,15.25-3.14,6.56-4.7,14.38-4.7,23.44s1.57,16.9,4.7,23.52c3.14,6.62,7.52,11.7,13.16,15.25,5.15,3.24,11.07,4.98,17.73,5.26v-14.33Z"/><g><path class="cls-3" d="M657.49,138.48c-5.81,0-8.71,3.14-8.71,9.41v48.37h17.6v-48.37c0-6.27-2.96-9.41-8.89-9.41Z"/><path class="cls-3" d="M657.49,120.36c7.32,0,10.98-3.31,10.98-9.93s-3.66-9.93-10.98-9.93-10.98,3.31-10.98,9.93c0,3.14,.96,5.58,2.88,7.32,1.92,1.74,4.62,2.61,8.1,2.61Z"/></g><path class="cls-3" d="M709.77,196.27v-61.62l33.52,61.62h21.12l33.53-61.79v61.79h16.21V108.86c0-5.69-2.67-8.54-8.02-8.54-2.33,0-4.15,.47-5.49,1.39-1.34,.93-2.59,2.44-3.75,4.53l-42.87,80.16-42.87-80.16c-1.16-2.09-2.41-3.6-3.75-4.53-1.34-.93-3.22-1.39-5.66-1.39-5.58,0-8.36,2.85-8.36,8.54v87.41h16.38Z"/><g><path class="cls-3" d="M849.86,138.48c-5.81,0-8.71,3.14-8.71,9.41v48.37h17.6v-48.37c0-6.27-2.96-9.41-8.89-9.41Z"/><path class="cls-3" d="M849.86,120.36c7.32,0,10.98-3.31,10.98-9.93s-3.66-9.93-10.98-9.93-10.98,3.31-10.98,9.93c0,3.14,.96,5.58,2.88,7.32,1.92,1.74,4.62,2.61,8.1,2.61Z"/></g><path class="cls-3" d="M901.09,196.27v-19.97c0-7.32,2.12-13.21,6.36-17.69,4.24-4.47,9.9-6.71,16.99-6.71,6.04,0,10.48,1.68,13.33,5.05,2.84,3.37,4.27,8.71,4.27,16.03v23.28h17.6v-24.33c0-22.77-10.05-34.15-30.15-34.15-6.27,0-11.94,1.34-16.99,4.01-5.05,2.67-9.03,6.56-11.94,11.67v-6.45c0-5.92-2.85-8.89-8.54-8.89s-8.54,2.96-8.54,8.89v49.25h17.6Z"/><g><path class="cls-3" d="M1058.27,196.27v-49.25c0-5.92-2.9-8.89-8.71-8.89s-8.89,2.96-8.89,8.89v40.43c0,3.23-.41,6.16-1.19,8.82h18.79Z"/><path class="cls-3" d="M1001.17,196.27c-.15-1.4-.23-2.88-.23-4.46v-44.78c0-5.92-2.96-8.89-8.89-8.89s-8.71,2.96-8.71,8.89v44.61c0,1.61,.06,3.14,.17,4.64h17.67Z"/></g><path class="cls-3" d="M1160.56,196.27c-1.39-4.08-2.11-8.86-2.11-14.4,0-9.87,2.21-17.39,6.62-22.57,4.41-5.17,10.28-7.75,17.6-7.75s13.01,2.59,17.42,7.75c4.41,5.17,6.62,12.69,6.62,22.57,0,5.54-.72,10.32-2.11,14.4h18.13c1.16-4.39,1.75-9.18,1.75-14.4,0-9.06-1.74-16.87-5.23-23.44-3.49-6.56-8.36-11.64-14.64-15.25-6.27-3.6-13.59-5.4-21.96-5.4s-16.03,1.8-22.3,5.4c-6.27,3.6-11.12,8.68-14.55,15.25-3.43,6.56-5.14,14.38-5.14,23.44,0,5.22,.59,10.01,1.72,14.4h18.16Z"/></g><path class="cls-3" d="M1076.06,152.85h12.02v43.42h16.93v-43.42h18.35c3.77,0,6.83-3.06,6.83-6.83s-3.06-6.82-6.83-6.82h-18.35v-21.94h-1.38l-29.01,32.38c-.44,.49-.6,1.18-.42,1.81,.24,.83,.99,1.4,1.85,1.4Z"/></g><rect class="cls-1" x="605.34" y="220.24" width="620.48" height="71.39"/><g><g><path class="cls-2" d="M135.98,232.6c-37.92,0-68.78-30.85-68.78-68.78s30.85-68.78,68.78-68.78c6.31,0,11.45-5.14,11.45-11.45s-5.14-11.45-11.45-11.45c-50.56,0-91.68,41.13-91.68,91.68s41.13,91.68,91.68,91.68c6.31,0,11.45-5.14,11.45-11.45s-5.14-11.45-11.45-11.45Z"/><path class="cls-2" d="M228.52,163.91c0-3.77-2.9-7.03-6.66-7.06,0,0-9.82-.02-9.89-.02-3.91,0-7.08,3.17-7.08,7.08s3.11,7.01,6.96,7.08l10.01-.02c3.52,0,6.66-3.29,6.66-7.06Z"/><path class="cls-2" d="M185.44,85.89c-3-2.29-7.35-1.96-9.66,1.02,0,0-5.97,7.8-6.01,7.85-2.37,3.11-1.77,7.56,1.34,9.93,3.08,2.35,7.46,1.78,9.85-1.25l6.06-7.97c2.13-2.8,1.42-7.3-1.58-9.58Z"/><path class="cls-2" d="M215.82,117.17c-1.87-3.27-6-4.67-9.29-2.82,0,0-8.54,4.86-8.59,4.89-3.4,1.94-4.58,6.27-2.63,9.67,1.92,3.36,6.18,4.55,9.56,2.69l8.68-4.98c3.06-1.75,4.15-6.17,2.28-9.44Z"/><path class="cls-2" d="M185.65,241.88c-3,2.29-7.35,1.96-9.66-1.02,0,0-5.97-7.8-6.01-7.85-2.37-3.11-1.77-7.56,1.34-9.93,3.08-2.35,7.46-1.78,9.85,1.25l6.06,7.97c2.13,2.8,1.42,7.3-1.58,9.58Z"/><path class="cls-2" d="M216.03,210.6c-1.87,3.27-6,4.67-9.29,2.82,0,0-8.54-4.86-8.59-4.89-3.4-1.94-4.58-6.27-2.63-9.67,1.92-3.36,6.18-4.55,9.56-2.69l8.68,4.98c3.06,1.75,4.15,6.17,2.28,9.44Z"/></g><path class="cls-2" d="M136.53,209.23c-1.44,0-2.61-.47-3.53-1.42-.92-.95-1.37-2.11-1.37-3.48v-6.66c-3.98-.26-7.53-.9-10.63-1.91-3.1-1.01-5.76-2.14-7.98-3.38-1.5-.85-2.43-1.99-2.79-3.43-.36-1.44-.28-2.81,.24-4.11,.52-1.31,1.4-2.22,2.64-2.74,1.24-.52,2.71-.29,4.41,.69,1.83,1.05,4.23,2.04,7.2,2.99,2.97,.95,6.55,1.42,10.72,1.42,4.9,0,8.42-.86,10.58-2.6,2.15-1.73,3.23-3.9,3.23-6.51,0-2.15-.75-3.92-2.25-5.29-1.5-1.37-4.18-2.48-8.03-3.33l-10.38-2.25c-11.82-2.55-17.73-8.75-17.73-18.61,0-5.48,1.88-10.1,5.63-13.86,3.75-3.75,8.8-6.02,15.13-6.81v-6.95c0-1.37,.46-2.53,1.37-3.48,.91-.95,2.09-1.42,3.53-1.42s2.53,.47,3.48,1.42c.95,.95,1.42,2.11,1.42,3.48v6.86c2.61,.26,5.37,.88,8.28,1.86,2.9,.98,5.44,2.32,7.59,4.02,1.24,.98,1.96,2.11,2.15,3.38,.2,1.27-.02,2.45-.64,3.53-.62,1.08-1.57,1.8-2.84,2.15-1.27,.36-2.76,.05-4.46-.93-1.89-1.11-4.02-2.01-6.37-2.69-2.35-.69-5.16-1.03-8.42-1.03-4.18,0-7.46,.93-9.84,2.79-2.38,1.86-3.57,4.29-3.57,7.3,0,2.22,.72,4,2.15,5.34,1.44,1.34,3.88,2.4,7.35,3.18l10.68,2.35c6.27,1.37,10.87,3.54,13.81,6.51,2.94,2.97,4.41,6.87,4.41,11.7,0,5.48-1.88,9.97-5.63,13.47-3.76,3.49-8.64,5.7-14.64,6.61v6.95c0,1.37-.46,2.53-1.37,3.48-.91,.95-2.09,1.42-3.53,1.42Z"/><rect class="cls-2" x="118.57" y="35.68" width="35.91" height="20.52" rx="4.34" ry="4.34"/></g><g><polygon class="cls-2" points="756.4 241.76 747.67 262.68 765.45 262.68 756.56 241.76 756.4 241.76"/><path class="cls-2" d="M803.92,253.95h10.94c6.56,0,9.84-2.62,9.84-7.87s-3.28-7.79-9.84-7.79h-10.94v15.66Z"/><path class="cls-2" d="M906.84,254.82h11.09c6.45,0,9.68-2.78,9.68-8.34s-3.23-8.18-9.68-8.18h-11.09v16.52Z"/><path class="cls-2" d="M1033.99,274.72c4.62,0,8.22-1.61,10.82-4.84,2.6-3.23,3.89-7.7,3.89-13.42s-1.29-10.24-3.86-13.42c-2.57-3.17-6.19-4.76-10.86-4.76s-8.14,1.59-10.74,4.76c-2.6,3.17-3.89,7.65-3.89,13.42s1.3,10.19,3.89,13.42c2.6,3.23,6.18,4.84,10.74,4.84Z"/><path class="cls-2" d="M1230.2,202.79h-60.33v105.58h60.33c7.23,0,13.08-5.86,13.08-13.08v-79.42c0-7.23-5.86-13.08-13.08-13.08Zm-13.55,74.1c-1.86,2.6-4.49,4.62-7.87,6.06-3.38,1.44-7.38,2.16-12,2.16-3.36,0-6.71-.37-10.07-1.1-3.36-.73-6.27-1.81-8.73-3.23-1.47-.79-2.39-1.85-2.75-3.19-.37-1.34-.29-2.64,.24-3.9,.52-1.26,1.36-2.15,2.52-2.67,1.15-.52,2.54-.39,4.17,.39,2.1,1.21,4.43,2.1,7,2.67,2.57,.58,5.11,.87,7.63,.87,3.78,0,6.49-.59,8.14-1.77,1.65-1.18,2.48-2.66,2.48-4.45,0-1.52-.58-2.73-1.73-3.62-1.15-.89-3.17-1.65-6.06-2.28l-8.89-1.89c-9.91-2.1-14.87-7.24-14.87-15.42,0-3.51,.94-6.6,2.83-9.25,1.89-2.65,4.52-4.71,7.91-6.18,3.38-1.47,7.3-2.2,11.76-2.2,2.94,0,5.82,.35,8.66,1.06,2.83,.71,5.32,1.74,7.47,3.11,1.31,.79,2.12,1.81,2.44,3.07,.31,1.26,.22,2.47-.28,3.62-.5,1.15-1.34,1.97-2.52,2.44-1.18,.47-2.64,.29-4.37-.55-1.73-.89-3.57-1.55-5.51-1.97-1.94-.42-3.93-.63-5.98-.63-3.3,0-5.86,.64-7.67,1.93-1.81,1.29-2.71,2.95-2.71,5,0,1.52,.55,2.75,1.65,3.7s3.02,1.71,5.74,2.28l8.89,1.89c10.18,2.2,15.26,7.19,15.26,14.95,0,3.46-.93,6.49-2.79,9.09Z"/><path class="cls-2" d="M1172.2,202.79H597.31c-7.23,0-13.08,5.86-13.08,13.08v79.42c0,7.23,5.86,13.08,13.08,13.08h574.89v-105.58Zm-519.39,74.1c-1.86,2.6-4.49,4.62-7.87,6.06-3.38,1.44-7.38,2.16-12,2.16-3.36,0-6.72-.37-10.07-1.1-3.36-.73-6.27-1.81-8.73-3.23-1.47-.79-2.39-1.85-2.75-3.19-.37-1.34-.29-2.64,.24-3.9,.52-1.26,1.36-2.15,2.52-2.67,1.15-.52,2.54-.39,4.17,.39,2.1,1.21,4.43,2.1,7,2.67,2.57,.58,5.11,.87,7.63,.87,3.78,0,6.49-.59,8.14-1.77,1.65-1.18,2.48-2.66,2.48-4.45,0-1.52-.58-2.73-1.73-3.62-1.15-.89-3.17-1.65-6.06-2.28l-8.89-1.89c-9.91-2.1-14.87-7.24-14.87-15.42,0-3.51,.94-6.6,2.83-9.25,1.89-2.65,4.52-4.71,7.91-6.18,3.38-1.47,7.3-2.2,11.76-2.2,2.94,0,5.82,.35,8.66,1.06,2.83,.71,5.32,1.74,7.47,3.11,1.31,.79,2.12,1.81,2.44,3.07,.31,1.26,.22,2.47-.28,3.62-.5,1.15-1.34,1.97-2.52,2.44-1.18,.47-2.64,.29-4.37-.55-1.73-.89-3.57-1.55-5.51-1.97-1.94-.42-3.93-.63-5.98-.63-3.3,0-5.86,.64-7.67,1.93-1.81,1.29-2.71,2.95-2.71,5,0,1.52,.55,2.75,1.65,3.7s3.02,1.71,5.74,2.28l8.89,1.89c10.18,2.2,15.26,7.19,15.26,14.95,0,3.46-.93,6.49-2.79,9.09Zm68.41,2.4c0,3.78-1.84,5.67-5.51,5.67s-5.59-1.89-5.59-5.67v-28.88l-12.9,23.21c-.63,1-1.3,1.74-2.01,2.24-.71,.5-1.64,.75-2.79,.75s-2.1-.25-2.83-.75c-.74-.5-1.39-1.25-1.97-2.24l-12.9-22.98v28.64c0,3.78-1.84,5.67-5.51,5.67-1.78,0-3.15-.5-4.09-1.5-.94-1-1.42-2.39-1.42-4.17v-45.56c0-1.83,.5-3.24,1.5-4.21,1-.97,2.41-1.46,4.25-1.46,1.57,0,2.82,.31,3.74,.94,.92,.63,1.77,1.65,2.56,3.07l16.84,30.77,16.84-30.77c.79-1.42,1.64-2.44,2.56-3.07,.92-.63,2.14-.94,3.66-.94,1.78,0,3.16,.49,4.13,1.46,.97,.97,1.46,2.37,1.46,4.21v45.56Zm62.67,3.5c-.92,1.44-2.4,2.16-4.45,2.16-1.78,0-3.16-.42-4.13-1.26-.97-.84-1.82-2.15-2.56-3.93l-3.3-7.55h-25.89l-3.23,7.55c-.79,1.84-1.63,3.16-2.52,3.97-.89,.81-2.15,1.22-3.78,1.22-2.2,0-3.78-.73-4.72-2.2-.94-1.47-.92-3.28,.08-5.43l20.14-44.14c.84-1.78,1.83-3.08,2.99-3.89,1.15-.81,2.49-1.22,4.01-1.22s2.86,.41,4.01,1.22c1.15,.81,2.12,2.11,2.91,3.89l20.3,44.14c1,2.2,1.04,4.03,.12,5.47Zm52.6-.39c-.68,1.71-2.33,2.56-4.96,2.56-1.73,0-3.15-.37-4.25-1.1-1.1-.73-2.05-1.86-2.83-3.38l-7.55-13.93c-.79-1.47-1.76-2.46-2.91-2.99-1.15-.52-2.52-.79-4.09-.79h-5.98v15.89c0,1.99-.51,3.54-1.53,4.64s-2.53,1.65-4.52,1.65-3.51-.55-4.56-1.65c-1.05-1.1-1.57-2.65-1.57-4.64v-43.67c0-4.14,2.07-6.22,6.22-6.22h19.12c6.19,0,10.96,1.5,14.32,4.49,3.36,2.99,5.04,7.16,5.04,12.51,0,4.14-1.06,7.59-3.19,10.35-2.12,2.75-5.15,4.63-9.09,5.63,2.78,.84,5.06,2.86,6.85,6.06l4.88,9.05c1.1,1.99,1.31,3.84,.63,5.55Zm47.76-43.55h-13.93v39.81c0,1.99-.51,3.54-1.53,4.64-1.02,1.1-2.53,1.65-4.52,1.65s-3.51-.55-4.56-1.65c-1.05-1.1-1.57-2.65-1.57-4.64v-39.81h-13.93c-3.41,0-5.11-1.68-5.11-5.04s1.7-5.04,5.11-5.04h40.05c3.41,0,5.11,1.68,5.11,5.04s-1.71,5.04-5.11,5.04Zm50.04,20.69c-3.36,3.15-8.13,4.72-14.32,4.72h-13.14v14.4c0,1.99-.51,3.54-1.53,4.64s-2.53,1.65-4.52,1.65-3.51-.55-4.56-1.65c-1.05-1.1-1.57-2.65-1.57-4.64v-43.67c0-4.14,2.07-6.22,6.22-6.22h19.12c6.19,0,10.96,1.56,14.32,4.68,3.36,3.12,5.04,7.46,5.04,13.02s-1.68,9.91-5.04,13.06Zm62.79,19.12c0,1.99-.53,3.54-1.57,4.64-1.05,1.1-2.57,1.65-4.56,1.65s-3.44-.55-4.48-1.65c-1.05-1.1-1.57-2.65-1.57-4.64v-17.47h-25.81v17.47c0,4.2-2.02,6.29-6.06,6.29-1.99,0-3.51-.55-4.56-1.65-1.05-1.1-1.57-2.65-1.57-4.64v-44.3c0-4.2,2.04-6.29,6.14-6.29s6.06,2.1,6.06,6.29v16.68h25.81v-16.68c0-4.2,2.02-6.29,6.06-6.29s6.14,2.1,6.14,6.29v44.3Zm60.94-7.16c-2.28,4.3-5.48,7.65-9.6,10.03-4.12,2.39-8.93,3.58-14.44,3.58s-10.24-1.19-14.36-3.58c-4.12-2.39-7.32-5.72-9.6-9.99-2.28-4.28-3.42-9.3-3.42-15.07s1.14-10.79,3.42-15.07c2.28-4.27,5.47-7.59,9.56-9.95s8.89-3.54,14.4-3.54,10.32,1.18,14.44,3.54c4.12,2.36,7.32,5.68,9.6,9.95,2.28,4.28,3.42,9.27,3.42,14.99s-1.14,10.81-3.42,15.11Zm60.94,7.79c0,1.73-.45,3.11-1.34,4.13-.89,1.02-2.1,1.53-3.62,1.53s-2.64-.29-3.5-.87c-.87-.58-1.8-1.5-2.79-2.75l-25.49-32.5v30.21c0,3.93-1.89,5.9-5.67,5.9s-5.67-1.97-5.67-5.9v-44.85c0-1.99,.48-3.51,1.46-4.56,.97-1.05,2.27-1.57,3.89-1.57,1.36,0,2.44,.28,3.23,.83s1.68,1.46,2.67,2.71l25.49,32.5v-30.21c0-3.88,1.89-5.82,5.67-5.82s5.67,1.94,5.67,5.82v45.4Zm43.2-28.01c3.25,0,4.88,1.6,4.88,4.8s-1.63,4.8-4.88,4.8h-20.38v13.85h22.19c3.2,0,4.8,1.57,4.8,4.72s-1.6,4.8-4.8,4.8h-27.46c-4.25,0-6.37-2.12-6.37-6.37v-42.72c0-4.25,2.12-6.37,6.37-6.37h27.46c3.2,0,4.8,1.57,4.8,4.72s-1.6,4.8-4.8,4.8h-22.19v12.98h20.38Z"/></g></svg>